<?xml version="1.0" encoding="UTF-8" standalone="no"?>
<!DOCTYPE svg PUBLIC "-//W3C//DTD SVG 1.1//EN"
 "http://www.w3.org/Graphics/SVG/1.1/DTD/svg11.dtd">
<!-- Generated by graphviz version 2.40.1 (20161225.0304)
 -->
<!-- Title: G Pages: 1 -->
<svg width="455pt" height="149pt"
 viewBox="0.00 0.00 455.16 149.00" xmlns="http://www.w3.org/2000/svg" xmlns:xlink="http://www.w3.org/1999/xlink">
<g id="graph0" class="graph" transform="scale(1 1) rotate(0) translate(4 145)">
<title>G</title>
<polygon fill="#ffffff" stroke="transparent" points="-4,4 -4,-145 451.1564,-145 451.1564,4 -4,4"/>
<g id="clust1" class="cluster">
<title>cluster_Global</title>
<path fill="none" stroke="#c0c0c0" d="M247.5285,-8C247.5285,-8 427.1564,-8 427.1564,-8 433.1564,-8 439.1564,-14 439.1564,-20 439.1564,-20 439.1564,-121 439.1564,-121 439.1564,-127 433.1564,-133 427.1564,-133 427.1564,-133 247.5285,-133 247.5285,-133 241.5285,-133 235.5285,-127 235.5285,-121 235.5285,-121 235.5285,-20 235.5285,-20 235.5285,-14 241.5285,-8 247.5285,-8"/>
<text text-anchor="middle" x="337.3424" y="-120.2" font-family="Times,serif" font-size="11.00" fill="#c0c0c0">Global</text>
</g>
<!-- \\CloudFlare_WP_CLI_Commands -->
<g id="node1" class="node">
<title>\\CloudFlare_WP_CLI_Commands</title>
<polygon fill="none" stroke="#000000" points="430.9707,-106 243.7141,-106 243.7141,-70 430.9707,-70 430.9707,-106"/>
<text text-anchor="middle" x="337.3424" y="-84.7" font-family="Courier,monospace" font-size="11.00" fill="#000000">CloudFlare_WP_CLI_Commands</text>
</g>
<!-- \\WP_CLI_Command -->
<g id="node3" class="node">
<title>\\WP_CLI_Command</title>
<ellipse fill="none" stroke="#000000" cx="85.7642" cy="-88" rx="85.5291" ry="18"/>
<text text-anchor="middle" x="85.7642" y="-83.8" font-family="Times,serif" font-size="14.00" fill="#c0c0c0">\WP_CLI_Command</text>
</g>
<!-- \\CloudFlare_WP_CLI_Commands&#45;&gt;\\WP_CLI_Command -->
<g id="edge1" class="edge">
<title>\\CloudFlare_WP_CLI_Commands&#45;&gt;\\WP_CLI_Command</title>
<path fill="none" stroke="#000000" d="M243.664,-88C223.4667,-88 202.0858,-88 181.8001,-88"/>
<polygon fill="none" stroke="#000000" points="181.6231,-84.5001 171.6231,-88 181.623,-91.5001 181.6231,-84.5001"/>
</g>
<!-- \\CloudFlareAPI -->
<g id="node2" class="node">
<title>\\CloudFlareAPI</title>
<polygon fill="none" stroke="#000000" points="388.1566,-52 286.5283,-52 286.5283,-16 388.1566,-16 388.1566,-52"/>
<text text-anchor="middle" x="337.3424" y="-30.7" font-family="Courier,monospace" font-size="11.00" fill="#000000">CloudFlareAPI</text>
</g>
</g>
</svg>
